<svg width="24" height="24" viewBox="0 0 24 24" fill="none" xmlns="http://www.w3.org/2000/svg">
    <path fill-rule="evenodd" clip-rule="evenodd" d="M20.6282 7.74554L20.0058 6.66545C19.4792 5.75153 18.3122 5.43625 17.3971 5.96064V5.96064C16.9614 6.21727 16.4416 6.29008 15.9522 6.16301C15.4629 6.03595 15.0441 5.71944 14.7884 5.2833C14.6238 5.00607 14.5354 4.69032 14.5321 4.36797V4.36797C14.5469 3.85115 14.3519 3.35033 13.9916 2.97959C13.6312 2.60886 13.1361 2.39979 12.619 2.4H11.365C10.8585 2.4 10.3728 2.60184 10.0155 2.96087C9.65822 3.3199 9.45871 3.80652 9.46114 4.31305V4.31305C9.44613 5.35885 8.59401 6.19874 7.5481 6.19863C7.22574 6.19528 6.90999 6.10687 6.63277 5.94234V5.94234C5.7176 5.41794 4.55065 5.73322 4.02407 6.64714L3.35588 7.74554C2.82994 8.65832 3.14093 9.82453 4.05153 10.3542V10.3542C4.64344 10.696 5.00806 11.3275 5.00806 12.011C5.00806 12.6945 4.64344 13.326 4.05153 13.6677V13.6677C3.14209 14.1939 2.83076 15.3573 3.35588 16.2673V16.2673L3.98746 17.3565C4.23418 17.8017 4.64814 18.1302 5.13773 18.2694C5.62732 18.4085 6.15217 18.3468 6.59615 18.0979V18.0979C7.03261 17.8433 7.55272 17.7735 8.04087 17.9041C8.52902 18.0348 8.94477 18.355 9.1957 18.7936C9.36023 19.0708 9.44864 19.3866 9.45199 19.7089V19.7089C9.45199 20.7655 10.3085 21.622 11.365 21.622H12.619C13.672 21.622 14.527 20.771 14.5321 19.7181V19.7181C14.5296 19.21 14.7304 18.7219 15.0897 18.3627C15.449 18.0034 15.937 17.8026 16.4451 17.805C16.7667 17.8136 17.0812 17.9017 17.3605 18.0613V18.0613C18.2732 18.5873 19.4394 18.2763 19.9692 17.3657V17.3657L20.6282 16.2673C20.8833 15.8294 20.9533 15.3079 20.8227 14.8183C20.6922 14.3287 20.3718 13.9113 19.9325 13.6586V13.6586C19.4933 13.4059 19.1729 12.9885 19.0423 12.4989C18.9118 12.0092 18.9818 11.4877 19.2369 11.0499C19.4028 10.7603 19.6429 10.5201 19.9325 10.3542V10.3542C20.8377 9.82482 21.1479 8.66542 20.6282 7.75469V7.75469V7.74554Z" stroke="#406373" stroke-width="1.5" stroke-linecap="round" stroke-linejoin="round"/>
    <circle cx="11.9965" cy="12.011" r="2.63616" stroke="#406373" stroke-width="1.5" stroke-linecap="round" stroke-linejoin="round"/>
</svg>
